# xmcd
#
# Track frame offsets:
#	150
#	13824
#	32990
#	45537
#	61920
#	80780
#	93203
#	104859
#	124715
#	138550
#	150494
#	160623
#	175053
#	189597
#	201091
#	217541
#	234409
#	247784
#	259052
#	271025
#	284703
#	306958
#
# Disc length: 4133 seconds
#
# Revision: 1
# Processed by: cddbd v1.5.2PL0 Copyright (c) Steve Scherf et al.
# Submitted via: audiograbber 1.83.01
#
DISCID=2d102316
DTITLE=Diverse kunstnere Country - Sweet Sounds Country
DYEAR=1900
DGENRE=
TTITLE0=America  - Amber Morgan
TTITLE1=Mring Me My Memories In Person  - The Calhoun Twins
TTITLE2=Forever In Her Eyes  - Charlie Louvin
TTITLE3=Don´t Cry To Me  - Robin Joleady
TTITLE4=Diamonds In Her Eyes  - Bill Townsend
TTITLE5=Same Old Me  - Curtis Andrews
TTITLE6=Cowboy´s Sweetheart  - Anne Murphy
TTITLE7=Holding Out For You  - Anne Murphy
TTITLE8=I Can´t Help It - Jim Wilkerson
TTITLE9=Lord When I Make It To Heaven  - Morgan and Morgan
TTITLE10=Frienship Café  - Pat Cole
TTITLE11=Did I Shave My Legs For This  - Courtney Graves
TTITLE12=Let´s Dance  - Rick Reed
TTITLE13=This Rambling Man´s Heart - Rick Reed
TTITLE14=Holding Her Tonight  - Lin Butler
TTITLE15=The Unsung Heroes  - Gladys Jones
TTITLE16=The Twelfth Of Never - Pam Heimbuch
TTITLE17=Flower Of My Life - Country Cavaleers
TTITLE18=Our Flag Still Files  - Johnny Selph
TTITLE19=Cheap Whiskey  - Michelle Towns
TTITLE20=Rather Be Miserable Alone  - Siara Sol
TTITLE21=Burning Country Jingle  - Marvell
EXTD=
EXTT0=
EXTT1=
EXTT2=
EXTT3=
EXTT4=
EXTT5=
EXTT6=
EXTT7=
EXTT8=
EXTT9=
EXTT10=
EXTT11=
EXTT12=
EXTT13=
EXTT14=
EXTT15=
EXTT16=
EXTT17=
EXTT18=
EXTT19=
EXTT20=
EXTT21=
PLAYORDER=
